<svg width="200" height="29" viewBox="0 0 200 29" fill="none" xmlns="http://www.w3.org/2000/svg">
<g clip-path="url(#clip0_55_181)">
<path d="M7.90198 16.5928C2.54447 15.7972 0.386032 12.7712 0.386032 8.98745C0.386032 1.98989 7.36153 0.0971889 16.3058 0.0971889C28.5633 0.0971889 33.575 3.23687 33.998 8.94956H21.3545C21.3545 7.85249 20.7385 7.21005 19.6962 6.7933C18.7328 6.37654 17.4992 6.22664 16.3041 6.22664C13.0665 6.22664 11.9486 6.98273 11.9486 8.15558C11.9486 8.91167 12.2961 9.4042 13.3753 9.55575L26.3662 11.4468C31.8781 12.2408 35.2316 14.738 35.2316 19.3158C35.2316 25.9361 29.7583 29 17.5394 29C9.21282 29 -3.8147e-06 27.865 -3.8147e-06 19.9203H13.1051C13.1437 20.7901 13.5297 21.4341 14.2615 21.8492C15.0705 22.2281 16.3041 22.4159 17.9624 22.4159C21.3545 22.4159 22.2793 21.5462 22.2793 20.2218C22.2793 19.4278 21.816 18.67 20.3139 18.4065L7.90198 16.5912V16.5928Z" fill="white"/>
<path d="M47.0309 7.85249H36.9705V1.04436H67.9624V7.85413H57.902V28.0561H47.0326V7.85249H47.0309Z" fill="white"/>
<path d="M75.4448 1.04436H88.7815L100.5 28.0561H88.9359L87.7795 24.9543H76.4468L75.2904 28.0561H63.7261L75.4448 1.04436ZM82.1517 9.21477H82.0745L78.8369 18.3702H85.3894L82.1517 9.21477Z" fill="white"/>
<path d="M120.272 12.5604H135.728V27.9573H131.064L129.83 25.4979C127.017 27.9573 123.51 28.9028 117.226 28.9028C109.594 28.9028 99.2246 27.0496 99.2246 14.5651C99.2246 2.72457 108.862 0 117.187 0C129.29 0 135.072 3.25334 135.881 10.2147H123.624C123.315 8.81448 122.544 7.94473 121.504 7.4522C120.463 6.95967 119.23 6.80977 117.803 6.80977C113.332 6.80977 110.556 8.96603 110.556 14.4514C110.556 19.4821 113.216 22.093 118.651 22.093C122.197 22.093 123.969 20.7686 124.742 18.6882H120.27V12.5587L120.272 12.5604Z" fill="white"/>
<path d="M139.151 0.945526H200V7.52797H150.02V11.1602H163.943V17.7426H150.02V21.3748H200V27.9573H139.151V0.945526Z" fill="white"/>
<path d="M168.817 15.2058L167.934 15.9702V17.7575H165.258V11.1091H167.934V13.4548L170.42 11.1091H173.968L170.942 13.6788L174.225 17.7575H170.666L168.817 15.2058Z" fill="white"/>
<path d="M174.894 11.1091H177.57V15.9702H181.715V17.7575H174.894V11.1091Z" fill="white"/>
<path d="M182.294 11.1091H184.97V15.1317C184.97 15.9883 185.473 16.2584 186.346 16.2584C187.219 16.2584 187.722 15.9883 187.722 15.1317V11.1091H190.398V15.2339C190.398 17.3473 189.099 17.9897 186.346 17.9897C183.593 17.9897 182.294 17.3473 182.294 15.2339V11.1091Z" fill="white"/>
<path d="M191.556 11.1091H197.647C199.042 11.1091 199.649 11.6955 199.649 12.7663C199.649 13.3626 199.364 13.865 198.844 14.061V14.0791C199.716 14.3032 200.002 15.1037 200.002 15.5962C200.002 16.8992 199.337 17.7558 197.355 17.7558H191.558V11.1075L191.556 11.1091ZM194.174 13.5849H196.195C196.735 13.5849 196.86 13.4087 196.86 13.1468C196.86 12.8849 196.735 12.7284 196.195 12.7284H194.174V13.5849ZM194.174 16.1365H196.46C196.992 16.1365 197.153 15.9125 197.153 15.6144C197.153 15.3162 196.992 15.0922 196.46 15.0922H194.174V16.1349V16.1365Z" fill="white"/>
</g>
<defs>
<clipPath id="clip0_55_181">
<rect width="200" height="29" fill="white"/>
</clipPath>
</defs>
</svg>
