<?xml version="1.0" encoding="UTF-8" standalone="no"?>
<svg
   width="200"
   height="25"
   viewBox="0 0 365.32623 34.175999"
   version="1.1"
   id="svg49"
   sodipodi:docname="powered by #InagoDig.svg"
   inkscape:version="1.1.2 (0a00cf5339, 2022-02-04)"
   xmlns:inkscape="http://www.inkscape.org/namespaces/inkscape"
   xmlns:sodipodi="http://sodipodi.sourceforge.net/DTD/sodipodi-0.dtd"
   xmlns="http://www.w3.org/2000/svg"
   xmlns:svg="http://www.w3.org/2000/svg"
   xmlns:rdf="http://www.w3.org/1999/02/22-rdf-syntax-ns#"
   xmlns:cc="http://creativecommons.org/ns#"
   xmlns:dc="http://purl.org/dc/elements/1.1/">
  <defs
     id="defs53" />
  <sodipodi:namedview
     id="namedview51"
     pagecolor="#505050"
     bordercolor="#eeeeee"
     borderopacity="1"
     inkscape:pageshadow="0"
     inkscape:pageopacity="0"
     inkscape:pagecheckerboard="0"
     showgrid="false"
     fit-margin-top="0"
     fit-margin-left="0"
     fit-margin-right="0"
     fit-margin-bottom="0"
     inkscape:zoom="1.704918"
     inkscape:cx="130.50481"
     inkscape:cy="60.413462"
     inkscape:window-width="1916"
     inkscape:window-height="1041"
     inkscape:window-x="0"
     inkscape:window-y="18"
     inkscape:window-maximized="1"
     inkscape:current-layer="svg49" />
  <title
     id="title2">powered by #InagoDig</title>
  <g
     id="Case-study"
     stroke="none"
     stroke-width="1"
     fill="white"
     fill-rule="evenodd"
     transform="translate(-0.218667,-0.48)">
    <g
       id="Artboard"
       transform="translate(-136,-1690)"
       fill="white"
       fill-rule="nonzero">
      <g
         id="powered-by-#InagoDig"
         transform="translate(136.21867,1690.48)">
        <path
           d="m 15.52,11.168 c 2.112,0 2.528,1.696 2.528,3.072 0,3.52 -2.976,9.088 -6.24,9.088 -1.856,0 -2.048,-1.568 -2.048,-1.568 l 3.36,-9.952 c 0,0 1.248,-0.64 2.4,-0.64 z M 14.656,5.76 c -1.536,0 -2.336,0.928 -2.848,2.464 l -1.024,3.136 c -2.56,1.248 -4.352,2.624 -4.352,2.624 l 0.288,0.768 c 0,0 1.792,-1.248 3.648,-2.08 L 4.384,29.248 c -0.8,2.24 -1.728,3.328 -3.648,3.904 L 0,33.376 v 0.8 h 9.376 v -0.8 L 7.84,33.12 c -1.216,-0.192 -1.6,-0.576 -1.6,-1.344 0,-0.608 0.224,-1.472 0.48,-2.176 l 2.176,-5.856 c 0.288,0.384 1.152,0.768 2.272,0.768 5.056,0 9.472,-6.208 9.472,-10.592 0,-2.272 -1.472,-3.968 -4.192,-3.968 -1.76,0 -2.848,0.544 -2.848,0.544 0,0 1.12,-3.36 2.144,-4.512 C 15.424,5.856 15.168,5.76 14.656,5.76 Z"
           id="Shape" />
        <path
           d="m 25.884444,24.512 c 4.96,0 8.768,-6.208 8.768,-10.944 0,-2.848 -1.472,-4.48 -3.744,-4.48 -4.928,0 -8.736,6.24 -8.736,10.976 0,2.816 1.472,4.448 3.712,4.448 z m 0.928,-1.184 c -1.344,0 -2.016,-1.28 -2.016,-3.616 0,-3.616 2.304,-9.408 5.216,-9.408 1.344,0 2.016,1.248 2.016,3.584 0,3.616 -2.304,9.44 -5.216,9.44 z"
           id="path5" />
        <path
           d="m 48.024889,9.088 c -2.752,0 -4.064,3.84 -4.256,5.088 l 0.512,0.064 c 0.448,-1.28 1.216,-3.04 2.176,-3.04 0.32,0 0.416,0.256 0.416,0.64 0,4.672 -3.488,10.016 -6.208,10.08 0,0 0.832,-8.352 0.832,-10.816 0,-1.024 -0.224,-2.016 -1.344,-2.016 -2.752,0 -4.064,3.84 -4.256,5.088 l 0.512,0.064 c 0.448,-1.28 1.216,-3.04 2.176,-3.04 0.32,0 0.416,0.256 0.416,0.64 -0.096,3.072 -0.672,12.32 -0.672,12.32 l 0.352,0.32 c 3.392,-1.184 6.208,-3.776 7.872,-6.816 -0.192,3.04 -0.352,6.496 -0.352,6.496 l 0.352,0.32 c 6.848,-2.56 11.04,-9.568 11.04,-13.152 0,-1.248 -0.768,-2.208 -2.048,-2.208 -0.96,0 -1.792,0.704 -1.984,1.856 0.992,0.16 1.408,1.056 1.408,2.08 0,3.648 -4,8.864 -6.432,8.864 0,0 0.832,-8.352 0.832,-10.816 0,-1.024 -0.224,-2.016 -1.344,-2.016 z"
           id="Path" />
        <path
           d="m 67.061333,11.52 c 0,2.752 -4.128,4.128 -6.304,4.768 0.672,-1.888 2.528,-5.92 5.216,-5.92 0.672,0 1.088,0.416 1.088,1.152 z m 2.464,-0.224 c 0,-1.056 -0.64,-2.208 -2.464,-2.208 -5.952,0 -9.664,6.976 -9.664,11.552 0,2.432 1.344,3.872 3.904,3.872 3.552,0 5.76,-3.744 6.208,-4.544 l -0.48,-0.352 c -0.768,1.12 -2.784,3.072 -4.8,3.072 -1.664,0 -2.208,-1.216 -2.208,-2.4 0,-1.12 0.16,-2.048 0.48,-3.136 5.984,-1.568 9.024,-3.36 9.024,-5.856 z"
           id="path8" />
        <path
           d="m 70.833778,22.464 c -0.096,0.32 -0.096,0.448 -0.096,0.736 0,0.704 0.416,1.28 1.152,1.28 0.768,0 1.152,-0.224 1.152,-0.224 0,-3.2 4.352,-12.8 7.424,-12.8 0.96,0 1.152,0.64 1.152,0.992 0,0.224 -0.064,0.416 -0.064,0.416 0,0 0.096,0.032 0.224,0.032 0.864,0 1.984,-0.576 1.984,-1.888 0,-1.056 -0.704,-1.888 -2.048,-1.888 -3.936,0 -7.744,9.12 -7.744,9.12 h -0.128 c 0.256,-0.704 1.152,-2.944 3.648,-9.12 -2.784,1.344 -5.888,1.472 -5.888,1.472 v 0.704 c 1.344,0 2.048,0.16 2.048,0.896 0,0.288 -0.16,0.864 -0.224,1.088 z"
           id="path10" />
        <path
           d="m 92.782222,11.52 c 0,2.752 -4.128,4.128 -6.304,4.768 0.672,-1.888 2.528,-5.92 5.216,-5.92 0.672,0 1.088,0.416 1.088,1.152 z m 2.464,-0.224 c 0,-1.056 -0.64,-2.208 -2.464,-2.208 -5.952,0 -9.664,6.976 -9.664,11.552 0,2.432 1.344,3.872 3.904,3.872 3.552,0 5.76,-3.744 6.208,-4.544 l -0.48,-0.352 c -0.768,1.12 -2.784,3.072 -4.8,3.072 -1.664,0 -2.208,-1.216 -2.208,-2.4 0,-1.12 0.16,-2.048 0.48,-3.136 5.984,-1.568 9.024,-3.36 9.024,-5.856 z"
           id="path12" />
        <path
           d="m 100.01067,22.624 c -1.120003,0 -1.632003,-0.64 -1.632003,-1.984 0,-3.456 3.296003,-10.24 7.328003,-10.24 0.8,0 1.28,0.576 1.28,1.536 0,4.832 -4.224,10.688 -6.976,10.688 z M 114.41067,0 c -2.784,1.344 -5.888,1.472 -5.888,1.472 v 0.704 c 1.344,0 2.048,0.192 2.048,0.896 0,0.352 -0.16,0.864 -0.224,1.056 l -1.984,5.792 c -0.32,-0.384 -1.088,-0.832 -2.144,-0.832 -5.568,0 -10.336003,6.976 -10.336003,12.16 0,2.176 1.024,3.264 2.976,3.264 3.328003,0 5.632003,-3.648 6.560003,-5.472 h 0.128 c -0.384,1.088 -0.96,2.528 -0.96,3.648 0,1.504 0.576,1.856 1.568,1.856 2.368,0 4.352,-2.976 5.344,-4.864 l -0.48,-0.352 c -0.704,0.992 -2.176,3.072 -3.392,3.072 -0.448,0 -0.64,-0.256 -0.64,-0.672 0,-0.512 0.352,-1.728 0.8,-2.976 z"
           id="path14" />
        <path
           d="m 130.27555,10.912 c 1.12,0 1.536,0.672 1.536,2.016 0,3.36 -3.10399,10.4 -7.10399,10.4 -1.12001,0 -1.66401,-0.544 -1.66401,-1.856 0,-3.808 4.57601,-10.56 7.232,-10.56 z M 130.33955,0 c -2.784,1.344 -5.88799,1.472 -5.88799,1.472 v 0.704 c 1.34399,0 2.048,0.192 2.048,0.896 0,0.352 -0.16,0.864 -0.22401,1.056 l -4.67199,12.608 c -0.48001,1.248 -0.86401,2.688 -0.86401,4.032 0,2.144 0.896,3.744 3.29601,3.744 5.56799,0 10.39999,-7.008 10.39999,-12.192 0,-2.112 -1.088,-3.232 -3.04,-3.232 -2.976,0 -5.376,3.52 -6.528,5.696 h -0.128 z"
           id="path16" />
        <path
           d="m 149.984,11.328 c 0,-1.248 -0.768,-2.208 -2.048,-2.208 -0.96,0 -1.792,0.704 -1.984,1.856 0.992,0.16 1.408,1.088 1.408,2.08 0,3.104 -2.88,8.224 -5.632,10.848 0,-5.248 -0.192,-10.016 -0.352,-12.832 -0.064,-1.024 -0.224,-1.984 -1.344,-1.984 -2.752,0 -4.064,3.84 -4.256,5.088 l 0.512,0.064 c 0.032,-0.096 1.056,-3.04 2.24,-3.04 0.288,0 0.352,0.288 0.384,0.736 0.096,1.056 0.768,6.848 0.768,10.912 0,1.344 -0.032,2.4 -0.192,2.752 -0.704,1.472 -3.808,3.744 -7.104,3.744 -1.024,0 -1.504,-0.384 -1.696,-1.024 -0.736,0.192 -1.44,0.768 -1.44,1.76 0,1.024 0.8,1.696 2.08,1.696 7.36,0 18.656,-14.656 18.656,-20.448 z"
           id="path18" />
        <path
           d="m 166.96889,24 h 2.528 l 1.408,-5.056 h 3.936 l 0.64,-2.176 h -3.968 l 1.536,-5.472 h 4 l 0.608,-2.176 h -4 l 1.472,-5.152 h -2.528 l -1.472,5.152 h -4.256 l 1.472,-5.152 h -2.528 l -1.472,5.152 h -3.424 l -0.608,2.176 h 3.424 l -1.536,5.472 h -3.488 l -0.64,2.176 h 3.52 l -1.408,5.056 h 2.528 l 1.408,-5.056 h 4.256 z m -0.704,-12.704 h 4.256 l -1.536,5.472 h -4.256 z"
           id="path20" />
        <polygon
           id="polygon22"
           points="185.78133,1.6 180.72533,1.6 180.72533,24 185.78133,24 " />
        <path
           d="m 190.22578,24 h 4.96 v -9.472 c 0,-1.792 1.152,-3.232 2.88,-3.232 1.696,0 2.72,1.248 2.72,2.976 V 24 h 4.96 V 12.736 c 0,-3.52 -2.304,-6.048 -6.048,-6.048 -2.272,0 -3.872,1.12 -4.544,2.272 h -0.256 V 7.104 h -4.672 z"
           id="path24" />
        <path
           d="m 216.39822,24.416 c 2.784,0 4.192,-1.568 4.672,-2.336 h 0.256 V 24 h 4.928 V 7.104 h -4.96 v 1.92 h -0.256 c -0.576,-0.896 -2.112,-2.336 -4.768,-2.336 -4.544,0 -7.68,3.648 -7.68,8.96 0,5.312 3.168,8.768 7.808,8.768 z m 1.12,-4.48 c -2.336,0 -3.904,-1.76 -3.904,-4.384 0,-2.592 1.568,-4.384 3.872,-4.384 2.272,0 3.904,1.696 3.904,4.384 0,2.496 -1.504,4.384 -3.872,4.384 z"
           id="path26" />
        <path
           d="m 237.89867,31.776 c 6.048,0 8.832,-3.552 8.832,-7.968 V 7.104 h -4.96 v 1.92 h -0.256 c -0.512,-0.832 -2.08,-2.336 -4.832,-2.336 -4.32,0 -7.616,3.36 -7.616,8.768 0,5.44 3.36,8.736 7.744,8.736 2.688,0 4.16,-1.504 4.736,-2.336 h 0.256 v 1.952 c 0,2.624 -1.312,3.968 -3.904,3.968 -2.176,0 -3.264,-0.96 -3.488,-2.24 h -4.544 c 0.16,3.232 2.784,6.24 8.032,6.24 z m 0.096,-12.064 c -2.336,0 -3.904,-1.632 -3.904,-4.256 0,-2.592 1.568,-4.288 3.872,-4.288 2.272,0 3.904,1.6 3.904,4.288 0,2.496 -1.504,4.256 -3.872,4.256 z"
           id="path28" />
        <path
           d="m 258.85511,24.416 c 5.44,0 9.12,-3.872 9.12,-8.864 0,-4.992 -3.68,-8.864 -9.088,-8.864 -5.472,0 -9.12,3.872 -9.12,8.864 0,4.992 3.68,8.864 9.088,8.864 z m 0,-4.48 c -2.336,0 -4.064,-1.792 -4.064,-4.384 0,-2.56 1.728,-4.384 4.064,-4.384 2.368,0 4.096,1.824 4.096,4.384 0,2.56 -1.728,4.384 -4.096,4.384 z"
           id="path30" />
        <path
           d="m 280.16355,2.912 c 0.64001,-0.128 1.376,-0.224 2.464,-0.224 5.95201,0 8.83201,3.52 8.83201,8.64 0,7.456 -5.69601,11.584 -12.80001,11.584 -1.75999,0 -2.59199,-0.48 -2.59199,-1.632 0,-0.48 0.15999,-1.152 0.19199,-1.28 z m -6.43199,20.992 c 1.88799,0 3.51999,0.096 5.34399,0.096 9.44,0 15.584,-5.152 15.584,-13.312 0,-4.992 -4.032,-9.088 -11.36,-9.088 -1.248,0 -3.32799,0.096 -4.86399,0.096 -2.81601,0 -3.74401,-0.096 -3.74401,-0.096 l -0.224,0.928 1.024,0.16 c 0.96,0.16 1.472,0.384 1.472,1.152 0,0.288 -0.064,0.608 -0.128,0.928 l -3.42399,15.008 c -0.416,1.856 -1.24801,2.72 -3.00801,3.136 l -0.67199,0.16 -0.224,0.928 c 0,0 1.50399,-0.096 4.224,-0.096 z"
           id="path32" />
        <path
           d="m 303.872,9.12 c -2.784,1.344 -5.888,1.472 -5.888,1.472 v 0.704 c 1.344,0 2.048,0.16 2.048,0.896 0,0.384 -0.128,0.768 -0.224,1.024 l -2.336,6.56 c -0.608,1.664 -0.8,2.624 -0.8,3.52 0,0.928 0.448,1.216 1.216,1.216 2.208,0 4.96,-3.008 5.984,-4.896 l -0.48,-0.32 c -0.672,0.96 -2.944,3.104 -3.744,3.104 -0.288,0 -0.416,-0.128 -0.416,-0.448 0,-0.512 0.288,-1.472 0.864,-3.008 z m 0.224,-4.64 c 1.056,0 1.824,-1.024 1.824,-1.952 0,-0.8 -0.544,-1.376 -1.344,-1.376 -1.056,0 -1.824,1.024 -1.824,1.952 0,0.8 0.544,1.376 1.344,1.376 z"
           id="path34" />
        <path
           d="m 312.70044,10.016 c 1.248,0 1.76,1.184 1.76,2.848 0,2.048 -0.96,6.048 -3.424,6.048 -1.024,0 -1.696,-0.896 -1.696,-2.848 0,-2.016 0.896,-6.048 3.36,-6.048 z m -3.552,21.216 c -2.688,0 -4.16,-1.44 -4.16,-2.944 0,-1.184 0.768,-1.696 1.504,-1.824 -0.064,-0.448 -0.544,-0.864 -1.28,-0.864 -1.312,0 -2.4,1.024 -2.4,2.688 0,2.464 2.304,4.128 5.92,4.128 4.32,0 7.232,-2.048 7.232,-4.832 0,-2.016 -1.088,-3.296 -4.224,-4.192 -1.824,-0.544 -3.168,-0.96 -3.168,-1.888 0,-1.056 1.28,-1.504 2.368,-1.696 3.232,-0.288 5.824,-3.552 5.824,-6.976 0,-0.928 -0.128,-1.472 -0.32,-1.888 0.576,0.16 1.312,0.896 2.336,0.896 0.96,0 1.44,-0.576 1.44,-1.28 0,-0.48 -0.288,-0.832 -0.544,-1.024 -0.608,0.416 -1.408,0.64 -2.24,0.64 -0.448,0 -1.184,-0.096 -1.632,-0.192 -0.736,-0.672 -1.376,-0.896 -2.4,-0.896 -3.488,0 -6.368,3.68 -6.368,7.2 0,1.888 0.96,3.008 2.272,3.392 -1.344,0.192 -2.912,1.056 -2.912,2.752 0,1.952 2.112,2.56 4.16,3.168 2.176,0.64 3.104,1.216 3.104,2.624 0,1.312 -1.12,3.008 -4.512,3.008 z"
           id="path36" />
        <path
           d="m 327.06489,9.12 c -2.784,1.344 -5.888,1.472 -5.888,1.472 v 0.704 c 1.344,0 2.048,0.16 2.048,0.896 0,0.384 -0.128,0.768 -0.224,1.024 l -2.336,6.56 c -0.608,1.664 -0.8,2.624 -0.8,3.52 0,0.928 0.448,1.216 1.216,1.216 2.208,0 4.96,-3.008 5.984,-4.896 l -0.48,-0.32 c -0.672,0.96 -2.944,3.104 -3.744,3.104 -0.288,0 -0.416,-0.128 -0.416,-0.448 0,-0.512 0.288,-1.472 0.864,-3.008 z m 0.224,-4.64 c 1.056,0 1.824,-1.024 1.824,-1.952 0,-0.8 -0.544,-1.376 -1.344,-1.376 -1.056,0 -1.824,1.024 -1.824,1.952 0,0.8 0.544,1.376 1.344,1.376 z"
           id="path38" />
        <path
           d="m 337.26933,5.664 c -0.128,-0.128 -0.608,-0.352 -1.088,-0.352 -1.056,0 -1.824,0.544 -2.272,1.824 l -0.832,2.272 -2.144,0.448 -0.096,0.928 1.728,0.064 -3.136,8.992 c -0.384,1.088 -0.512,1.984 -0.512,2.688 0,1.28 0.576,1.984 1.664,1.984 2.336,0 4.96,-3.84 5.92,-5.696 l -0.544,-0.32 c -1.024,1.504 -2.752,3.584 -3.872,3.584 -0.288,0 -0.544,-0.16 -0.544,-0.608 0,-0.736 0.48,-2.24 1.408,-4.736 l 2.144,-5.824 h 3.968 l 0.576,-1.408 h -4.064 c 0,0 0.96,-3.104 1.696,-3.84 z"
           id="path40" />
        <path
           d="m 349.96978,22.4 c -0.448,0 -0.608,-0.256 -0.608,-0.704 0,-3.136 3.456,-10.976 4.416,-12.096 -0.288,-0.256 -0.704,-0.48 -1.216,-0.48 -1.088,0 -1.696,1.312 -1.856,1.824 -0.544,-0.448 -1.216,-0.992 -2.464,-0.992 -4.768,0 -9.152,5.76 -9.152,10.944 0,2.08 0.864,3.648 2.816,3.648 3.264,0 4.992,-3.584 5.92,-5.504 h 0.128 c -0.32,0.832 -0.96,2.272 -0.96,3.68 0,1.344 0.672,1.824 1.664,1.824 2.24,0 4.032,-2.976 4.768,-4.704 l -0.48,-0.32 c -0.8,1.312 -1.888,2.88 -2.976,2.88 z m -6.88,0.256 c -1.152,0 -1.504,-0.736 -1.504,-2.4 0,-4.192 2.688,-9.088 6.016,-9.088 1.024,0 1.76,0.512 2.144,1.44 -0.896,3.296 -3.968,10.048 -6.656,10.048 z"
           id="path42" />
        <path
           d="m 365.32622,0 c -2.784,1.344 -5.888,1.472 -5.888,1.472 v 0.704 c 1.344,0 2.048,0.192 2.048,0.896 0,0.352 -0.16,0.864 -0.224,1.056 l -5.312,15.68 c -0.352,1.088 -0.544,1.952 -0.544,2.592 0,1.6 0.896,2.112 1.856,2.112 2.368,0 4.352,-3.008 5.344,-4.864 l -0.48,-0.352 c -0.704,1.024 -2.08,2.976 -3.392,2.976 -0.448,0 -0.64,-0.224 -0.64,-0.672 0,-0.608 0.256,-1.408 0.768,-2.88 z"
           id="path44" />
      </g>
    </g>
  </g>
  <metadata
     id="metadata870">
    <rdf:RDF>
      <cc:Work
         rdf:about="">
        <dc:title>powered by #InagoDig</dc:title>
      </cc:Work>
    </rdf:RDF>
  </metadata>
</svg>