<svg width="25" height="25" viewBox="0 0 25 25" fill="none" xmlns="http://www.w3.org/2000/svg">
<path d="M22.879 24.542C20.0692 24.542 17.2929 23.9298 14.55 22.7053C11.8069 21.4809 9.30833 19.7443 7.05433 17.4957C4.80011 15.2414 3.06089 12.7416 1.83667 9.996C0.612222 7.25044 0 4.47278 0 1.663C0 1.18856 0.157222 0.792778 0.471667 0.475667C0.786111 0.158556 1.18056 0 1.655 0H7.047C7.48033 0 7.85111 0.128112 8.15933 0.384334C8.46756 0.640557 8.65989 0.969001 8.73633 1.36967L9.595 5.86867C9.66055 6.304 9.65078 6.67311 9.56567 6.976C9.48033 7.27889 9.31689 7.54311 9.07533 7.76867L5.794 10.9717C6.21733 11.7354 6.71856 12.4794 7.29767 13.2037C7.877 13.9279 8.52267 14.6349 9.23467 15.3247C9.89711 15.9869 10.5796 16.5939 11.282 17.1457C11.9842 17.6974 12.7204 18.1964 13.4907 18.6427L16.6797 15.4777C16.9381 15.2243 17.255 15.0424 17.6303 14.932C18.0057 14.8213 18.3888 14.7988 18.7797 14.8643L23.1643 15.774C23.5872 15.8947 23.9212 16.0996 24.1663 16.3887C24.4114 16.6778 24.534 17.0227 24.534 17.4233V22.879C24.534 23.3534 24.3754 23.7492 24.0583 24.0663C23.7412 24.3834 23.3481 24.542 22.879 24.542Z" fill="#EE4723"/>
</svg>
