<svg width="36" height="36" viewBox="0 0 36 36" fill="none" xmlns="http://www.w3.org/2000/svg">
<path d="M18.0016 0.933235C13.3665 0.933235 12.7849 0.953502 10.9644 1.03635C9.14748 1.11955 7.90729 1.4072 6.82212 1.82925C5.69962 2.26516 4.74743 2.84828 3.7988 3.79727C2.84946 4.7459 2.26634 5.69808 1.829 6.82023C1.40589 7.90575 1.11788 9.1463 1.03611 10.9625C0.954683 12.783 0.93335 13.365 0.93335 18.0001C0.93335 22.6351 0.953972 23.2151 1.03646 25.0355C1.12002 26.8524 1.40767 28.0926 1.82936 29.1778C2.26563 30.3003 2.84875 31.2525 3.79773 32.2011C4.74601 33.1505 5.6982 33.735 6.81999 34.1709C7.90587 34.593 9.14641 34.8806 10.963 34.9638C12.7834 35.0467 13.3648 35.0669 17.9995 35.0669C22.6349 35.0669 23.2148 35.0467 25.0353 34.9638C26.8522 34.8806 28.0938 34.593 29.1797 34.1709C30.3018 33.735 31.2526 33.1505 32.2009 32.2011C33.1502 31.2525 33.7333 30.3003 34.1707 29.1781C34.5902 28.0926 34.8782 26.8521 34.9636 25.0359C35.0454 23.2154 35.0667 22.6351 35.0667 18.0001C35.0667 13.365 35.0454 12.7833 34.9636 10.9629C34.8782 9.14594 34.5902 7.90575 34.1707 6.82059C33.7333 5.69809 33.1502 4.7459 32.2009 3.79727C31.2515 2.84792 30.3022 2.26481 29.1786 1.82925C28.0906 1.4072 26.8497 1.11955 25.0328 1.03635C23.2123 0.953502 22.6328 0.933235 17.9963 0.933235H18.0016ZM16.4706 4.00669C16.4706 4.00787 16.4715 4.00882 16.4727 4.00882C16.9266 4.00811 17.4329 4.00882 18.0016 4.00882C22.5585 4.00882 23.0986 4.02518 24.898 4.10696C26.5621 4.18305 27.4652 4.46109 28.0668 4.6947C28.8632 5.00403 29.4311 5.37381 30.0281 5.97115C30.6254 6.56849 30.9952 7.13739 31.3052 7.93384C31.5388 8.53474 31.8172 9.43786 31.893 11.1019C31.9747 12.901 31.9925 13.4415 31.9925 17.9962C31.9925 22.5509 31.9747 23.0913 31.893 24.8905C31.8169 26.5545 31.5388 27.4576 31.3052 28.0585C30.9959 28.8549 30.6254 29.4221 30.0281 30.019C29.4307 30.6164 28.8636 30.9862 28.0668 31.2955C27.4659 31.5302 26.5621 31.8075 24.898 31.8836C23.0989 31.9654 22.5585 31.9832 18.0016 31.9832C13.4444 31.9832 12.9043 31.9654 11.1052 31.8836C9.44117 31.8068 8.53805 31.5287 7.93609 31.2951C7.13964 30.9858 6.57074 30.616 5.9734 30.0187C5.37606 29.4214 5.00628 28.8539 4.69623 28.0571C4.46263 27.4562 4.18423 26.5531 4.10849 24.889C4.02672 23.0899 4.01036 22.5495 4.01036 17.9919C4.01036 13.4343 4.02672 12.8967 4.10849 11.0976C4.18458 9.43359 4.46263 8.53047 4.69623 7.92886C5.00557 7.13241 5.37606 6.56352 5.9734 5.96618C6.57074 5.36884 7.13964 4.99906 7.93609 4.68901C8.5377 4.45434 9.44117 4.177 11.1052 4.10056C12.6792 4.02946 13.2895 4.00812 16.4684 4.00456C16.4696 4.00456 16.4706 4.00551 16.4706 4.00669ZM27.1118 6.84263C25.9811 6.84263 25.0637 7.75891 25.0637 8.88994C25.0637 10.0206 25.9811 10.938 27.1118 10.938C28.2424 10.938 29.1598 10.0206 29.1598 8.88994C29.1598 7.75926 28.2424 6.84263 27.1118 6.84263ZM18.0016 9.23554C13.1614 9.23554 9.23708 13.1599 9.23708 18.0001C9.23708 22.8403 13.1614 26.7628 18.0016 26.7628C22.8418 26.7628 26.7647 22.8403 26.7647 18.0001C26.7647 13.1599 22.8418 9.23554 18.0016 9.23554ZM18.0016 12.3111C21.1433 12.3111 23.6906 14.858 23.6906 18.0001C23.6906 21.1418 21.1433 23.689 18.0016 23.689C14.8595 23.689 12.3127 21.1418 12.3127 18.0001C12.3127 14.858 14.8595 12.3111 18.0016 12.3111Z" fill="white"/>
</svg>
